<svg class="main-svg" xmlns="http://www.w3.org/2000/svg" xmlns:xlink="http://www.w3.org/1999/xlink" width="700" height="350" style="" viewBox="0 0 700 350"><rect x="0" y="0" width="700" height="350" style="fill: rgb(0, 0, 0); fill-opacity: 0;"/><defs id="defs-a6124b"><g class="clips"><clipPath id="clipa6124bxyplot" class="plotclip"><rect width="676" height="316"/></clipPath><clipPath class="axesclip" id="clipa6124bx"><rect x="16" y="0" width="676" height="350"/></clipPath><clipPath class="axesclip" id="clipa6124by"><rect x="0" y="0" width="700" height="316"/></clipPath><clipPath class="axesclip" id="clipa6124bxy"><rect x="16" y="0" width="676" height="316"/></clipPath></g><g class="gradients"/></defs><g class="bglayer"><rect class="bg" x="16" y="0" width="676" height="316" style="fill: rgb(0, 0, 0); fill-opacity: 0; stroke-width: 0;"/></g><g class="layer-below"><g class="imagelayer"/><g class="shapelayer"/></g><g class="cartesianlayer"><g class="subplot xy"><g class="layer-subplot"><g class="shapelayer"/><g class="imagelayer"/></g><g class="gridlayer"><g class="x"/><g class="y"/></g><g class="zerolinelayer"><path class="yzl zl crisp" transform="translate(0,307.1)" d="M16,0h676" style="stroke: rgb(255, 255, 255); stroke-opacity: 1; stroke-width: 2px;"/></g><path class="xlines-below"/><path class="ylines-below"/><g class="overlines-below"/><g class="xaxislayer-below"/><g class="yaxislayer-below"/><g class="overaxes-below"/><g class="plot" transform="translate(16, 0)" clip-path="url('#clipa6124bxyplot')"><g class="scatterlayer mlayer"><g class="trace scatter tracede91b5" style="stroke-miterlimit: 2; opacity: 1;"><g class="fills"/><g class="errorbars"/><g class="lines"><path class="js-line" d="M635.5,33.37L632.39,38.45L629.27,50.82L626.16,59.64L623.04,63.73L619.93,76.32L616.81,83.73L610.58,99.89L607.47,101.71L601.24,107.54L598.12,117.6L595,122.47L591.89,124.96L588.77,106.72L585.66,110.86L582.54,123.33L579.43,142.54L573.2,168.68L570.08,184.13L566.97,215.35L563.85,227.7L557.62,228.38L554.51,230.06L551.39,234.07L548.28,233.48L542.05,239.66L538.93,244.27L535.82,250.13L532.7,254.08L526.47,260.53L523.35,261.56L517.12,264.65L514.01,265.51L510.89,267.92L507.78,269.08L504.66,268.49L501.55,269.11L492.2,277.19L489.09,279.27L476.63,287.74L473.51,288.94L464.17,290.36L461.05,291.36L457.94,292.36L454.82,292.03L433.01,294.54L429.9,293.8L420.55,293.43L417.44,293.38L411.21,293.92L408.09,294.95L389.4,296.63L386.29,296.62L339.56,299.06L336.44,299.1L314.64,299.53L311.52,299.2L295.94,300.2L292.83,299.84L286.6,298.79L283.48,298.1L277.25,296.78L274.14,295.8L267.91,295.78L264.79,295.52L239.87,291.14L236.76,290.91L230.53,290.47L227.41,290.67L211.83,290.11L208.72,289.14L205.6,287.57L202.49,287.16L196.26,285.4L193.14,283.79L186.91,282.84L183.8,282.58L171.34,279.99L168.22,277.84L161.99,275.69L158.88,274.95L152.65,270.95L149.53,270.06L146.41,269.57L143.3,268.07L137.07,264.88L133.95,262.73L127.72,261.27L124.61,259.3L121.49,255.38L118.38,250.19L115.26,248.38L112.15,248.18L109.03,247.43L105.92,245.79L102.8,242.98L99.69,242.22L96.57,245.9L93.46,246.65L84.11,245.64L81,247.11L77.88,249.73L74.76,249.06L68.53,247.84L65.42,245.33L59.19,243.84L56.07,243.78L52.96,243.5L49.84,241.78L40.5,243.93L37.38,243.73L34.27,243.63L31.15,241.35L28.04,243.82L24.92,244.18L21.81,242.53L18.69,244.76L15.58,246.63L12.46,246.91L9.35,249.26" style="vector-effect: non-scaling-stroke; fill: none; stroke: rgb(56, 63, 67); stroke-opacity: 1; stroke-width: 2px; opacity: 1;"/></g><g class="points"/><g class="text"/></g><g class="trace scatter trace5dc755" style="stroke-miterlimit: 2;"><g class="fills"><g><path class="js-fill" d="M635.5,307.1L666.65,307.1L666.65,23.63L663.54,24.49L660.42,19.31L657.31,15.8L654.19,22.06L651.08,20.08L647.96,27.09L644.85,30.38L641.73,26.79L635.5,33.37" style="fill: rgb(235, 233, 231); fill-opacity: 1; stroke-width: 0;"/></g></g><g class="errorbars"/><g class="lines"><path class="js-line" d="M666.65,23.63L663.54,24.49L660.42,19.31L657.31,15.8L654.19,22.06L651.08,20.08L647.96,27.09L644.85,30.38L641.73,26.79L635.5,33.37" style="vector-effect: non-scaling-stroke; fill: none; stroke: rgb(56, 63, 67); stroke-opacity: 1; stroke-width: 2px; opacity: 1;"/></g><g class="points"/><g class="text"/></g></g></g><g class="overplot"/><path class="xlines-above crisp" d="" style="fill: none; stroke-width: 1px; stroke: rgb(0, 0, 0); stroke-opacity: 0;"/><path class="ylines-above crisp" d="M0,0" style="fill: none;"/><g class="overlines-above"/><g class="xaxislayer-above"><path class="xtick ticks crisp" d="M0,317v5" transform="translate(16,0)" style="stroke: rgb(68, 68, 68); stroke-opacity: 1; stroke-width: 1px;"/><path class="xtick ticks crisp" d="M0,317v5" transform="translate(109.46,0)" style="stroke: rgb(68, 68, 68); stroke-opacity: 1; stroke-width: 1px;"/><path class="xtick ticks crisp" d="M0,317v5" transform="translate(206.03,0)" style="stroke: rgb(68, 68, 68); stroke-opacity: 1; stroke-width: 1px;"/><path class="xtick ticks crisp" d="M0,317v5" transform="translate(299.48,0)" style="stroke: rgb(68, 68, 68); stroke-opacity: 1; stroke-width: 1px;"/><path class="xtick ticks crisp" d="M0,317v5" transform="translate(396.06,0)" style="stroke: rgb(68, 68, 68); stroke-opacity: 1; stroke-width: 1px;"/><path class="xtick ticks crisp" d="M0,317v5" transform="translate(492.63,0)" style="stroke: rgb(68, 68, 68); stroke-opacity: 1; stroke-width: 1px;"/><path class="xtick ticks crisp" d="M0,317v5" transform="translate(586.08,0)" style="stroke: rgb(68, 68, 68); stroke-opacity: 1; stroke-width: 1px;"/><path class="xtick ticks crisp" d="M0,317v5" transform="translate(682.65,0)" style="stroke: rgb(68, 68, 68); stroke-opacity: 1; stroke-width: 1px;"/><g class="xtick"><text text-anchor="middle" x="0" y="346" transform="translate(16,0)" style="font-family: 'GDS Transport', Arial, sans-serif; font-size: 20px; fill: rgb(107, 114, 118); fill-opacity: 1; white-space: pre;">Apr</text></g><g class="xtick"><text text-anchor="middle" x="0" y="346" transform="translate(109.46,0)" style="font-family: 'GDS Transport', Arial, sans-serif; font-size: 20px; fill: rgb(107, 114, 118); fill-opacity: 1; white-space: pre;">May</text></g><g class="xtick"><text text-anchor="middle" x="0" y="346" transform="translate(206.03,0)" style="font-family: 'GDS Transport', Arial, sans-serif; font-size: 20px; fill: rgb(107, 114, 118); fill-opacity: 1; white-space: pre;">Jun</text></g><g class="xtick"><text text-anchor="middle" x="0" y="346" transform="translate(299.48,0)" style="font-family: 'GDS Transport', Arial, sans-serif; font-size: 20px; fill: rgb(107, 114, 118); fill-opacity: 1; white-space: pre;">Jul</text></g><g class="xtick"><text text-anchor="middle" x="0" y="346" transform="translate(396.06,0)" style="font-family: 'GDS Transport', Arial, sans-serif; font-size: 20px; fill: rgb(107, 114, 118); fill-opacity: 1; white-space: pre;">Aug</text></g><g class="xtick"><text text-anchor="middle" x="0" y="346" transform="translate(492.63,0)" style="font-family: 'GDS Transport', Arial, sans-serif; font-size: 20px; fill: rgb(107, 114, 118); fill-opacity: 1; white-space: pre;">Sep</text></g><g class="xtick"><text text-anchor="middle" x="0" y="346" transform="translate(586.08,0)" style="font-family: 'GDS Transport', Arial, sans-serif; font-size: 20px; fill: rgb(107, 114, 118); fill-opacity: 1; white-space: pre;">Oct</text></g><g class="xtick"><text text-anchor="middle" x="0" y="346" transform="translate(682.65,0)" style="font-family: 'GDS Transport', Arial, sans-serif; font-size: 20px; fill: rgb(107, 114, 118); fill-opacity: 1; white-space: pre;">Nov</text></g></g><g class="yaxislayer-above"/><g class="overaxes-above"/></g></g><g class="polarlayer"/><g class="ternarylayer"/><g class="geolayer"/><g class="funnelarealayer"/><g class="pielayer"/><g class="treemaplayer"/><g class="sunburstlayer"/><g class="glimages"/><defs id="topdefs-a6124b"><g class="clips"/></defs><g class="layer-above"><g class="imagelayer"/><g class="shapelayer"/></g><g class="infolayer"><g class="g-gtitle"/><g class="g-xtitle"/><g class="g-ytitle"/></g></svg>