<?xml version="1.0" encoding="UTF-8"?>
<svg width="1200px" height="900px" viewBox="0 -150 1200 900" version="1.1" xmlns="http://www.w3.org/2000/svg" xmlns:xlink="http://www.w3.org/1999/xlink">
    <title>4summary</title>
    <g id="opengraph" stroke="none" stroke-width="1" fill="none" fill-rule="evenodd">
        <g id="4summary">
            <rect id="Rectangle-Copy" fill="#000000" x="0" y="-150" width="1200" height="900"/>
            <g id="Gov.uk_logo" transform="translate(61.000000, 46.000000)" fill="#FFFFFF" fill-rule="nonzero">
                <g id="Group" transform="translate(190.447807, 31.785440) scale(-1, 1) rotate(-180.000000) translate(-190.447807, -31.785440) translate(0.447807, 0.785440)">
                    <path d="M38.9877235,0.188282574 L41.2695048,7.36418946 L41.2532209,7.38393369 C41.0476367,7.54433008 40.8624073,7.72732039 40.7056748,7.93656849 L40.6853199,7.95244529 L35.0205588,6.15958808 L35.0205588,14.5201486 L40.6975328,11.5424342 L40.7097458,11.5544436 C40.8766557,11.7748869 41.0720625,11.9688688 41.2939306,12.134761 L38.037151,21.9665717 C38.0351155,21.9787846 38.029009,21.9909976 38.024938,22.001175 L38.0208671,22.0133879 C37.870241,22.5059758 37.786786,23.0250251 37.786786,23.5644292 C37.786786,26.2248111 39.7489958,28.4190664 42.3035323,28.7956316 C42.3422066,28.801738 42.3788453,28.8119155 42.4175196,28.8159864 C42.6353167,28.8444833 42.8551494,28.8648381 43.0831239,28.8648381 C43.3070275,28.8648381 43.5329666,28.8465188 43.7507638,28.8159864 C43.7874025,28.8119155 43.8240413,28.8037735 43.8606801,28.7956316 C46.4152166,28.4190664 48.3814974,26.2248111 48.3814974,23.5644292 C48.3814974,23.0250251 48.2960069,22.5059758 48.1474163,22.0133879 L48.1433453,22.001175 C48.1413099,21.9889621 48.1372389,21.9767492 48.1311324,21.9665717 L44.8743528,12.134761 C45.0962209,11.9688688 45.2916276,11.7750904 45.4605731,11.5544436 L45.4748215,11.5424342 L51.1497601,14.5201486 L51.1497601,6.15958808 L45.4788925,7.95244529 L45.4646441,7.93656849 C45.3058761,7.72732039 45.1247177,7.54433008 44.9150625,7.38393369 L44.8987786,7.36418946 L47.1805599,0.188282574 L43.0871949,0.188282574 L38.9877235,0.188282574 L38.9877235,0.188282574 Z M138.746956,8.45337871 C135.013872,8.45337871 131.647176,9.13852373 128.640761,10.5047428 C125.634346,11.8717761 123.065561,13.7375037 120.940513,16.1023328 C118.811393,18.4675691 117.174861,21.2460092 116.022775,24.4437597 C114.868654,27.6394748 114.292611,31.0692709 114.292611,34.7270415 C114.292611,38.4112735 114.809625,41.8451406 115.843653,45.0286427 C116.87768,48.2141803 118.385976,50.9926204 120.370576,53.3700696 C122.355176,55.7454833 124.795726,57.6120251 127.69426,58.9676596 C130.592793,60.3212587 133.910638,60.999076 137.641686,60.999076 C139.233437,60.999076 140.735627,60.8342015 142.15029,60.5024171 C143.562918,60.1685971 144.86563,59.708577 146.054355,59.1264276 C147.241044,58.5442783 148.309675,57.8420352 149.262283,57.0237693 C150.21082,56.2034679 151.008731,55.2936051 151.651945,54.2962163 L151.651945,60.2866554 L160.703757,60.2866554 L160.703757,32.2661374 L137.570444,32.2661374 L137.570444,40.1434732 L150.652521,40.1434732 L150.652521,40.6442031 C150.652521,41.7372597 150.469327,42.9259843 150.100904,44.2103768 C149.73248,45.4927338 149.087231,46.6855293 148.173297,47.7907989 C147.257328,48.8960685 146.036035,49.8181443 144.503314,50.5549907 C142.970592,51.2918371 141.051127,51.6602603 138.746956,51.6602603 C136.345081,51.6602603 134.279061,51.1920982 132.544826,50.2517031 C130.808555,49.3133434 129.383714,48.0716962 128.266231,46.5267613 C127.148749,44.983862 126.316235,43.2007751 125.770724,41.1795362 C125.223178,39.1603328 124.950423,37.0536035 124.950423,34.8674901 L124.950423,34.5133154 C124.950423,32.3516279 125.223178,30.251005 125.770724,28.2195887 C126.316235,26.1881724 127.148749,24.40305 128.266231,22.8560797 C129.383714,21.3131803 130.808555,20.0715331 132.544826,19.1311379 C134.279061,18.1929818 136.345081,17.7205452 138.746956,17.7205452 C140.267465,17.7205452 141.645489,17.9163591 142.88103,18.3088011 C144.116571,18.7016501 145.21777,19.2369833 146.180555,19.9148005 C147.143341,20.5926178 147.988068,21.4007063 148.724914,22.3411014 C149.461761,23.2774255 150.104975,24.2910982 150.652521,25.3861904 L159.706368,20.2893302 C158.849428,18.5062433 157.736016,16.8843671 156.357992,15.4226836 C154.979967,13.9614073 153.390251,12.715282 151.594951,11.6816615 C149.801687,10.6480411 147.819122,9.85074073 145.643186,9.29220302 C143.469286,8.73386886 141.171221,8.45337871 138.746956,8.45337871 Z M191.60856,8.45337871 C187.78388,8.45337871 184.370368,9.13852373 181.363953,10.5047428 C178.357538,11.8717761 175.803002,13.7375037 173.700343,16.1023328 C171.595649,18.4675691 169.98965,21.2460092 168.88438,24.4437597 C167.779111,27.6394748 167.227494,31.0692709 167.227494,34.7270415 C167.227494,38.4112735 167.779111,41.8451406 168.88438,45.0286427 C169.98965,48.2141803 171.595649,50.9926204 173.700343,53.3700696 C175.803002,55.7454833 178.357538,57.6120251 181.363953,58.9676596 C184.370368,60.3212587 187.78388,60.999076 191.60856,60.999076 C195.412886,60.999076 198.824363,60.3212587 201.84299,58.9676596 C204.861618,57.6120251 207.426332,55.7454833 209.522884,53.3700696 C211.619436,50.9926204 213.227471,48.2141803 214.346989,45.0286427 C215.446152,41.8451406 215.995734,38.4112735 215.995734,34.7270415 C215.995734,31.0692709 215.446152,27.6394748 214.346989,24.4437597 C213.227471,21.2460092 211.619436,18.4675691 209.522884,16.1023328 C207.426332,13.7375037 204.861618,11.8717761 201.84299,10.5047428 C198.824363,9.13852373 195.412886,8.45337871 191.60856,8.45337871 Z M285.589044,9.09740689 L285.589044,42.3206304 C285.589044,45.1723481 286.097916,47.749275 287.136014,50.0534466 C288.153758,52.3596537 289.598954,54.3218635 291.451247,55.9360049 C293.303541,57.5521818 295.501867,58.7999355 298.046226,59.6772305 C300.590585,60.556561 303.358848,60.9982618 306.371369,60.9982618 C309.404245,60.9982618 312.172508,60.556561 314.716867,59.6772305 C317.261226,58.7999355 319.439198,57.5521818 321.291491,55.9360049 C323.12343,54.3218635 324.568626,52.3596537 325.606724,50.0534466 C326.624468,47.749275 327.153694,45.1723481 327.153694,42.3206304 L327.153694,9.09740689 L316.996613,9.09659269 L316.996613,40.7850588 C316.996613,42.6393877 316.711645,44.2494582 316.162063,45.6152701 C315.612481,46.9831176 314.879706,48.1107775 313.943382,49.002321 C313.007058,49.8938644 311.88754,50.5594688 310.584828,50.999134 C309.282116,51.4387993 307.897985,51.6586319 306.391724,51.6586319 C304.905818,51.6586319 303.501332,51.4387993 302.218975,50.999134 C300.916263,50.5594688 299.796745,49.8938644 298.860421,49.002321 C297.924097,48.1107775 297.170967,46.9831176 296.64174,45.6152701 C296.092158,44.2494582 295.80719,42.6393877 295.80719,40.7850588 L295.80719,9.09659269 L285.589044,9.0957785 L285.589044,9.09740689 Z M219.944579,9.16498506 L234.396539,60.2862483 L248.441401,60.2862483 L262.873006,9.16498506 L251.433567,9.16417087 L241.765003,47.5966135 L241.41897,47.5966135 L231.526502,9.16417087 L219.944579,9.16417087 L219.944579,9.16498506 Z M337.310776,9.16498506 L337.310776,60.2862483 L347.651051,60.2862483 L347.651051,44.7412319 L354.24603,37.3625905 L367.741311,60.2862483 L379.750686,60.2862483 L360.861364,29.4832192 L378.610813,9.16417087 L365.889017,9.16417087 L347.651051,31.3045732 L347.651051,9.16417087 L337.310776,9.16417087 L337.310776,9.16498506 Z M18.5738215,10.942169 C16.8349047,10.9690374 15.1772039,12.0232163 14.4710933,13.7368931 C13.5290698,16.0109395 14.6190733,18.6324435 16.8841635,19.5606257 C19.1926096,20.5132338 21.8128924,19.4222126 22.7512521,17.1400243 C23.6977537,14.8629246 22.6169099,12.2180124 20.3066318,11.2721215 C19.7415806,11.0394653 19.1535283,10.9332129 18.5738215,10.942169 L18.5738215,10.942169 Z M67.6311006,10.942169 C67.0509868,10.9332129 66.4606954,11.0394653 65.89483,11.2721215 C63.5865874,12.2180124 62.5057436,14.8629246 63.4502097,17.1400243 C64.3906049,19.4222126 67.010277,20.5132338 69.3205551,19.5606257 C71.5860524,18.6324435 72.6750381,16.0109395 71.734643,13.7368931 C71.0283289,12.0232163 69.3714423,10.9690374 67.6311006,10.942169 Z M29.9155567,14.5242195 C28.1772505,14.551088 26.5183284,15.6044526 25.8120143,17.3189436 C24.8716192,19.5931935 25.9606049,22.2108302 28.2261022,23.1390124 C30.5343448,24.0916204 33.1540169,23.0046702 34.0944121,20.722889 C35.0388782,18.4472142 33.9580344,15.7978239 31.6497918,14.8501011 C31.0818909,14.6176484 30.4956706,14.5150599 29.9155567,14.5242195 Z M56.2893655,14.5242195 C55.7092516,14.5150599 55.1209958,14.6176484 54.5551303,14.8501011 C52.2489232,15.7978239 51.161973,18.4472142 52.1064391,20.722889 C53.0488697,23.0046702 55.6685418,24.0916204 57.9788199,23.1390124 C60.2422818,22.2108302 61.333303,19.5931935 60.3929078,17.3189436 C59.6865938,15.6044526 58.0297071,14.551088 56.2893655,14.5242195 L56.2893655,14.5242195 Z M8.40859799,16.8975977 C6.66988475,16.9250768 5.01279454,17.9784415 4.30566626,19.6929324 C3.36506758,21.9645362 4.45364619,24.5882793 6.71893999,25.5164615 C9.02860742,26.4690696 11.6507221,25.3780484 12.5907102,23.0962672 C13.5368047,20.8185569 12.4514828,18.1752731 10.1418154,17.2275502 C9.5761535,16.9953011 8.98810122,16.888438 8.40859799,16.8975977 L8.40859799,16.8975977 Z M77.7922532,16.8975977 C77.2141748,16.888438 76.625919,16.9953011 76.0600535,17.2275502 C73.7538464,18.1752731 72.6689317,20.8185569 73.6154333,23.0962672 C74.5558284,25.3780484 77.173465,26.4690696 79.4837431,25.5164615 C81.747205,24.5882793 82.8402617,21.9645362 81.8998665,19.6929324 C81.1935524,17.9784415 79.5325948,16.9250768 77.7922532,16.8975977 Z M191.616702,17.7919908 C193.851667,17.7919908 195.817948,18.2174077 197.51758,19.0598959 C199.215176,19.9046231 200.650195,21.0729928 201.814494,22.5711114 C202.978792,24.0671946 203.852016,25.8421395 204.442308,27.8979817 C205.052954,29.9538238 205.337922,32.1847179 205.337922,34.5845574 L205.337922,34.8674901 C205.337922,37.2917555 205.052954,39.5267206 204.442308,41.5703498 C203.852016,43.613979 202.978792,45.384853 201.814494,46.8809361 C200.650195,48.3770193 199.215176,49.5514954 197.51758,50.3962227 C195.817948,51.2389144 193.851667,51.6602603 191.616702,51.6602603 C189.383773,51.6602603 187.413421,51.2389144 185.701576,50.3962227 C183.989731,49.5514954 182.560819,48.3770193 181.408734,46.8809361 C180.254612,45.384853 179.379353,43.613979 178.78499,41.5703498 C178.190628,39.5267206 177.893447,37.2917555 177.893447,34.8674901 L177.893447,34.5845574 C177.893447,32.1847179 178.190628,29.9538238 178.78499,27.8979817 C179.379353,25.8421395 180.254612,24.0671946 181.408734,22.5711114 C182.560819,21.0729928 183.989731,19.9046231 185.701576,19.0598959 C187.413421,18.2174077 189.383773,17.7919908 191.616702,17.7919908 Z M5.43475106,28.1951628 C3.69542717,28.2236596 2.03894762,29.2760066 1.33202288,30.9919224 C0.390610011,33.2655617 1.48071523,35.8872693 3.74509306,36.8154515 C6.05537113,37.7680595 8.67565392,36.6811093 9.61706679,34.3972926 C10.5623471,32.1216178 9.48109624,29.4734488 7.17203946,28.5269472 C6.60617399,28.2928662 6.01466139,28.1870209 5.43475106,28.1951628 L5.43475106,28.1951628 Z M80.7701711,28.1951628 C80.1920927,28.1870209 79.6038369,28.2928662 79.0379714,28.5269472 C76.7276933,29.4734488 75.6427786,32.1216178 76.5892802,34.3972926 C77.5276398,36.6811093 80.1513829,37.7680595 82.4596255,36.8154515 C84.7251229,35.8872693 85.8120731,33.2655617 84.8696425,30.9919224 C84.1653639,29.2760066 82.5105127,28.2236596 80.7701711,28.1951628 L80.7701711,28.1951628 Z M21.6494428,29.3879584 C17.9507588,34.3056957 18.4759146,38.3664928 23.058,42.9381972 C20.0739756,41.2874171 15.4383569,43.0236877 18.1716092,48.5988874 C19.6003177,45.1304171 22.66108,45.9120442 23.300223,48.8919976 C23.7317463,50.9966914 22.4514248,53.4759149 19.6705421,53.9847868 C17.3932389,54.4061326 13.8787665,52.8449139 11.0632805,46.7811972 C12.6503499,46.8198715 14.0338707,47.6218535 15.8340556,48.8614653 L12.876289,39.0137778 C12.13069,41.780005 11.1805246,43.5875177 10.1729584,44.5706581 C9.49351271,42.577916 9.59182675,41.1388265 10.1967736,38.0387793 L4.09417913,40.2106443 C7.33447135,44.6337582 10.4729892,50.8460654 13.0511374,61.6870707 C22.1338888,60.3884298 32.3255736,59.6576898 43.0949298,59.6576898 C53.864693,59.6576898 64.0604488,60.3884298 73.1448286,61.6911416 C75.723791,50.8460654 78.8645479,44.6337582 82.1070791,40.2106443 L76.0046882,38.0387793 C76.6112635,41.1388265 76.7069314,42.577916 76.0270786,44.5706581 C75.0215479,43.5875177 74.0648689,41.780005 73.3198805,39.0137778 L70.3663885,48.8614653 C72.1637237,47.6218535 73.5539615,46.8198715 75.1416416,46.7811972 C72.3265627,52.8449139 68.8092407,54.4061326 66.5294949,53.9847868 C63.7490193,53.4759149 62.4686978,50.9966914 62.9002211,48.8919976 C63.5413996,45.9120442 66.600737,45.1304171 68.029649,48.5988874 C70.761273,43.0236877 66.1264684,41.2874171 63.1424441,42.9381972 C67.7263614,38.3664928 68.2494817,34.3056957 64.5510013,29.3879584 C59.395112,33.3286618 59.3360828,37.2286554 61.6565383,42.7183646 C58.6460526,39.2743201 53.9603609,41.1205071 55.6518508,46.6855293 C57.8216803,43.3269753 60.6998593,45.4418466 60.2479811,48.6334907 C59.867345,51.4160018 56.195326,53.6591088 51.621586,53.2621888 C45.0693524,52.6678265 44.6765034,48.1490447 44.5136644,44.4037481 C46.1237349,44.1065669 49.0243042,45.5985791 51.4974213,49.0711204 L52.4093196,38.6270352 C49.7184054,41.4339721 47.2737852,41.9652343 44.5564096,42.0507248 C45.460166,39.2295394 49.6186665,34.6089833 49.6186665,34.6089833 L43.5793757,34.6089833 L43.5753048,34.6089833 L36.5813704,34.6089833 C36.5813704,34.6089833 40.7378355,39.2295394 41.6436273,42.0507248 C38.9262518,41.9652343 36.4816316,41.4339721 33.7907174,38.6270352 L34.7026157,49.0711204 C37.1777682,45.5985791 40.0763021,44.1065669 41.6863726,44.4037481 C41.5255691,48.1490447 41.13272,52.6678265 34.578451,53.2621888 C30.004711,53.6591088 26.3367629,51.4160018 25.9561268,48.6334907 C25.5042486,45.4418466 28.3763212,43.3269753 30.5481861,46.6855293 C32.2396761,41.1205071 27.5519488,39.2743201 24.5434986,42.7183646 C26.8639541,37.2286554 26.804925,33.3286618 21.6490357,29.3879584 L21.6494428,29.3879584 Z M270.854151,48.0940865 C269.978892,48.0940865 269.144342,48.267103 268.350502,48.6111003 C267.556662,48.9550977 266.864596,49.4212243 266.25395,50.0013381 C265.663659,50.585523 265.195497,51.2613048 264.849464,52.0327544 C264.503431,52.8062396 264.340592,53.6326475 264.340592,54.5099425 C264.340592,55.4136988 264.503431,56.2584261 264.849464,57.0420887 C265.195497,57.8277868 265.663659,58.5157815 266.25395,59.1101438 C266.864596,59.704506 267.556662,60.1685971 268.350502,60.5024171 C269.144342,60.8342015 269.978892,60.999076 270.854151,60.999076 C271.729411,60.999076 272.563961,60.8342015 273.357801,60.5024171 C274.131286,60.1685971 274.823352,59.704506 275.413643,59.1101438 C276.003934,58.5157815 276.492451,57.8277868 276.838484,57.0420887 C277.184517,56.2584261 277.347356,55.4136988 277.347356,54.5099425 C277.347356,53.6326475 277.184517,52.8062396 276.838484,52.0327544 C276.492451,51.2613048 276.003934,50.585523 275.413643,50.0013381 C274.823352,49.4212243 274.131286,48.9550977 273.357801,48.6111003 C272.563961,48.267103 271.729411,48.0940865 270.854151,48.0940865 L270.854151,48.0940865 Z" id="Shape" transform="translate(190.371993, 30.939712) scale(-1, 1) rotate(-180.000000) translate(-190.371993, -30.939712) "/>
                </g>
            </g>
            <text id="People-tested-positi" font-family="Arial" font-size="45" font-weight="bold" fill="#FFFFFF">
                <tspan x="637" y="202">People tested positive</tspan>
            </text>
            <text id="Tests-in-pillars-1-2" font-family="Arial" font-size="45" font-weight="bold" fill="#FFFFFF">
                <tspan x="71.5" y="202">Vaccination - 2nd dose</tspan>
            </text>
            <text id="Deaths" font-family="Arial" font-size="45" font-weight="bold" fill="#FFFFFF">
                <tspan x="637" y="410">Deaths</tspan>
            </text>
            <text id="Patients-in-hospital" font-family="Arial" font-size="45" font-weight="bold" fill="#FFFFFF">
                <tspan x="71.5" y="410">Patients admitted</tspan>
            </text>
            <text id="12-Sept-2020" font-family="Arial" font-size="35" font-weight="bold" fill="#FFFFFF">
                <tspan x="927.5" y="564">{{ timestamp }}</tspan>
            </text>
            <text id="COVID-19-Dashboard" font-family="GDSTransportWebsite, GDS Transport Website, Arial" font-size="45" font-weight="300" fill="#FFFFFF">
                <tspan x="660" y="105">COVID-19 Dashboard</tspan>
            </text>
            <text id="4,322" x="635" y="270" font-family="Arial" font-size="80" font-weight="bold" fill="#FFFFFF">
                {{ newCasesByPublishDate }}
            </text>
            <text id="219,983" x="635" y="320" font-family="Arial" font-size="35" font-weight="bold" fill="#FFFFFF">
                as of {{ newCasesByPublishDateDate }}
            </text>
            <text id="219,983" x="69" y="270" font-family="Arial" font-size="80" font-weight="bold" fill="#FFFFFF">
                {{ cumPeopleVaccinatedSecondDoseByPublishDate }}
            </text>
            <text id="219,983" x="69" y="320" font-family="Arial" font-size="35" font-weight="bold" fill="#FFFFFF">
                as of {{ cumPeopleVaccinatedSecondDoseByPublishDateDate }}
            </text>
            <text id="13" x="635" y="484.5" font-size="80" font-family="Arial" font-weight="bold" fill="#FFFFFF">
                {{ newDeaths28DaysByPublishDate }}
            </text>
            <text id="219,983" x="635" y="532.5" font-family="Arial" font-size="35" font-weight="bold" fill="#FFFFFF">
                as of {{ newDeaths28DaysByPublishDateDate }}
            </text>
            <text id="1,093" x="69.5" y="484.5" font-family="Arial" font-size="80" font-weight="bold" fill="#FFFFFF">
                {{ newAdmissions }}
            </text>
            <text id="219,983" x="69.5" y="532.5" font-family="Arial" font-size="35" font-weight="bold" fill="#FFFFFF">
                as of {{ newAdmissionsDate }}
            </text>
            <line x1="600.5" y1="160.5" x2="600.5" y2="520" id="Line" stroke="#FFFFFF" stroke-width="4" stroke-linecap="square"/>
            <line x1="1134" y1="338" x2="66" y2="338" id="Line" stroke="#FFFFFF" stroke-width="4" stroke-linecap="square"/>
            <rect id="Rectangle" fill="black" x="563.5" y="300.25" width="74" height="74"/>
            <text id="(Within-28-days-of-p" font-family="Arial" font-size="29" font-weight="bold" fill="#FFFFFF">
                <tspan x="780" y="410">in 28 days of positive test</tspan>
            </text>
        </g>
    </g>
</svg>